# xmcd
#
# Track frame offsets:
#	150
#	15982
#	33164
#	51770
#	70453
#	83660
#	102118
#	116675
#	131608
#	153216
#	172798
#	189680
#	204987
#	219994
#
# Disc length: 3198 seconds
#
# Revision: 1
# Processed by: cddbd v1.5.2PL0 Copyright (c) Steve Scherf et al.
# Submitted via: audiograbber 1.83.01
#
DISCID=ac0c7c0e
DTITLE=Bellamy Brothers - Pray For Me
DYEAR=2012
DGENRE=Country
TTITLE0=Jesus Ain't No Stained Glass Window
TTITLE1=Pray For Me
TTITLE2=Holy Roller
TTITLE3=Spirit In The Sky
TTITLE4=Suppertime
TTITLE5=God Ain't Finished With Me Yet
TTITLE6=Hyprocrites In Heaven
TTITLE7=Hymn To Him
TTITLE8=The Spanish Bible
TTITLE9=Number Of Breaths
TTITLE10=New Man In The Suit
TTITLE11=Rodeo For Jesus
TTITLE12=Guardian Angel
TTITLE13=Hand Me My Bible
EXTD=
EXTT0=
EXTT1=
EXTT2=
EXTT3=
EXTT4=
EXTT5=
EXTT6=
EXTT7=
EXTT8=
EXTT9=
EXTT10=
EXTT11=
EXTT12=
EXTT13=
PLAYORDER=
